<svg width="81" height="87" viewBox="0 0 81 87" fill="none" xmlns="http://www.w3.org/2000/svg">
<path fill-rule="evenodd" clip-rule="evenodd" d="M40.5506 86.5497L74.115 72.4613C79.3294 70.5339 81 67.6428 81 63.2373V15.7405H74.115V0H59.6363V4.77262H48.6V0H32.4V4.77262H21.3638V0H6.885V15.7405H0V63.2373C0 67.6428 1.67063 70.5339 6.885 72.4613L40.5506 86.5497ZM40.5 85.0353L6.885 70.8092C2.93625 69.4325 1.67063 66.0366 1.67063 63.2373V17.3925H8.65688V1.60617H19.6931V6.28702H34.1719V1.60617H46.8281V6.28702H61.3069V1.60617H72.3431V17.3467H79.3294V63.1914C79.3294 65.9907 78.1144 69.3866 74.115 70.7633L40.5 85.0353ZM12.7069 14.5014H13.1119C13.6688 14.5014 13.8713 14.5932 13.8713 14.7768V18.9528C13.8713 19.0905 13.8206 19.1823 13.77 19.2282C13.6688 19.32 13.5675 19.32 13.2131 19.32C13.1119 19.32 12.96 19.32 12.7575 19.32V19.7789H18.4275C20.6044 19.7789 21.8194 19.2282 21.8194 18.2645C21.8194 17.7138 21.4144 17.3008 20.6044 17.0254C20.1994 16.8877 19.845 16.8419 19.035 16.7501C19.7944 16.6583 20.1488 16.6124 20.5031 16.4747C20.7056 16.383 20.8575 16.2912 21.0094 16.1994C21.2625 15.9699 21.4144 15.7405 21.4144 15.4192C21.4144 14.5473 20.4019 14.0425 18.5794 14.0425H12.7069V14.5014ZM16.6556 17.1172C16.9088 17.1172 17.01 17.1172 17.1619 17.1172C18.2756 17.1172 18.8831 17.4843 18.8831 18.1727C18.8831 18.9069 18.4275 19.32 17.4656 19.32C16.8581 19.32 16.6556 19.2282 16.6556 18.861V17.1172ZM16.6556 14.5932C16.9088 14.5473 17.0606 14.5473 17.2125 14.5473C18.0731 14.5473 18.5287 14.8686 18.5287 15.511C18.5287 16.1535 17.9213 16.5665 17.0606 16.5665C16.9594 16.5665 16.8075 16.5665 16.605 16.5665V14.5932H16.6556ZM28.8563 18.1268L29.2613 18.861C29.3625 18.9987 29.3625 19.0905 29.3625 19.1364C29.3625 19.2741 29.1094 19.32 28.4513 19.32V19.7789H33.1594V19.32C32.8556 19.32 32.7544 19.2741 32.6531 19.1823C32.6025 19.1364 32.5519 19.0905 32.5013 19.0446C32.4 18.9528 32.4 18.9069 32.3494 18.8152L29.4638 13.859H27.8944L25.4138 18.2645C25.11 18.8152 24.8569 19.0905 24.6544 19.1823C24.5531 19.2282 24.5025 19.2282 24.3 19.2282V19.6871H27.4894V19.2282C26.8313 19.2282 26.5781 19.1823 26.3756 19.0446C26.2744 18.9528 26.2238 18.9069 26.2238 18.8152C26.2238 18.7234 26.2744 18.5857 26.4263 18.3562L26.6287 17.9891H28.8563V18.1268ZM26.9325 17.5302L27.7931 15.924L28.6031 17.5302H26.9325ZM39.3356 17.5302H39.5887H39.9938C40.095 17.5302 40.2469 17.5302 40.3481 17.5302C41.2088 17.5302 42.2719 17.4384 42.9806 17.3008C43.335 17.209 43.6388 17.1172 43.8919 16.9336C44.2969 16.6124 44.4994 16.1994 44.4994 15.7405C44.4994 14.685 43.3856 14.0884 41.5631 14.0884H35.4375V14.5473C35.9944 14.5473 36.1969 14.5932 36.2981 14.5932C36.45 14.6391 36.5513 14.7309 36.5513 14.9145V19.0905C36.5513 19.3658 36.45 19.4117 35.8425 19.4117C35.7413 19.4117 35.5894 19.4117 35.4375 19.4117V19.8706H40.7025V19.4117C40.5 19.4117 40.3481 19.4117 40.2469 19.4117C39.69 19.4117 39.69 19.4117 39.5381 19.3658C39.4875 19.3658 39.4369 19.32 39.4369 19.32C39.3356 19.2741 39.3356 19.1823 39.3356 19.0905V17.5302ZM39.3356 16.9795V14.5932C39.69 14.5473 39.8419 14.5473 39.9938 14.5473C41.0063 14.5473 41.5631 14.9603 41.5631 15.7405C41.5631 16.6124 41.0063 16.9795 39.7913 16.9795H39.6394H39.3356ZM57.4088 19.3658H57.0544C56.3456 19.3658 56.295 19.32 56.295 18.9987V15.0062C56.295 14.685 56.3963 14.5932 56.8013 14.5473H57.0544H57.4594V14.0884H52.3969V14.5473C52.9538 14.5473 53.1563 14.5932 53.3081 14.5932C53.5106 14.6391 53.5613 14.7309 53.5613 15.0521V16.5206H50.9288V15.0062C50.9288 14.685 50.9794 14.5932 51.1819 14.5473C51.2831 14.5014 51.5363 14.5014 52.0931 14.5014V14.0425H47.0306V14.5014C47.1825 14.5014 47.3344 14.5014 47.385 14.5014C47.5369 14.5014 47.6381 14.5014 47.6888 14.5014C48.0431 14.5014 48.1444 14.5932 48.1444 14.9145V18.9987C48.1444 19.1823 48.0431 19.2741 47.6888 19.2741H47.385H47.0306V19.733H52.0931V19.2741C51.8906 19.2741 51.7388 19.2741 51.6881 19.2741C51.03 19.2741 50.9794 19.2282 50.9794 18.9069V17.0713H53.6119V18.8152C53.6119 19.2282 53.5106 19.2741 52.9031 19.2741C52.8019 19.2741 52.65 19.2741 52.4981 19.2741V19.733H57.5606V19.3658H57.4088ZM64.1925 18.1268L64.5975 18.861C64.6988 18.9987 64.6988 19.0905 64.6988 19.1364C64.6988 19.2741 64.4456 19.32 63.7875 19.32V19.7789H68.4956V19.32C68.1919 19.32 68.0906 19.2741 67.9894 19.1823C67.9388 19.1364 67.8881 19.0905 67.8375 19.0446C67.7363 18.9528 67.7363 18.9069 67.6856 18.8152L64.8 13.9507H63.2813L60.8006 18.3562C60.4969 18.9069 60.2438 19.1823 60.0413 19.2741C59.94 19.32 59.8894 19.32 59.6869 19.32V19.7789H62.8763V19.32C62.2181 19.32 61.965 19.2741 61.7625 19.1364C61.6613 19.0446 61.6106 18.9987 61.6106 18.9069C61.6106 18.8152 61.6613 18.6775 61.8131 18.448L62.0156 18.0809H64.1925V18.1268ZM62.2181 17.5302L63.0788 15.924L63.8888 17.5302H62.2181ZM44.145 31.4351V32.3529L50.3213 37.5844L48.6 38.594L44.2969 34.6933C41.7656 34.6933 39.285 34.6933 36.8044 34.6933L32.5013 38.594L30.78 37.5844L36.9563 32.3529V31.4351C39.285 31.4351 41.715 31.4351 44.145 31.4351ZM40.5 21.3391C43.0313 21.3391 45.1069 23.2207 45.1069 25.5152C45.1069 27.3049 43.8413 28.8193 42.12 29.4159V29.9207L45.765 29.8748V31.6645L51.7894 36.7584L55.7381 34.5098H55.0294V31.2515H57.0038C57.9656 31.2515 58.1175 29.9666 57.0038 29.9207H54.9788V26.433L59.9906 24.5974H67.3313V25.8364C69.0525 26.2035 70.6219 27.1214 71.28 28.9111C71.8369 30.6549 71.5331 32.72 70.9256 34.8769L66.825 48.4605L71.7356 52.6824C73.1025 52.6824 74.7731 52.7742 75.4819 51.3975C75.9881 50.342 75.8363 48.7358 75.2288 46.992L72.4444 38.594C71.8369 36.6666 71.7863 35.0145 72.4444 33.7755C73.5581 31.894 74.925 30.609 77.4563 30.1043V39.2365C75.2288 37.355 74.52 35.1063 75.8869 32.2611C73.8619 33.4084 73.2544 35.2899 73.8619 37.8139L76.8488 46.7167C77.76 49.4242 77.76 51.168 76.5956 52.5448C75.8869 53.5544 74.6719 54.1509 73.2038 54.1968H71.685V58.3729C71.685 59.3825 72.2419 59.8873 73.9631 59.8414V66.6332C72.2419 66.6332 71.6344 66.8626 71.6344 68.0558V70.3962H51.435V67.7804C51.435 66.312 53.1056 65.7154 55.1306 65.6695C56.8519 65.5777 57.7631 64.9352 57.8138 63.1914C57.7631 61.4934 56.2444 60.851 53.2069 60.851V52.6824H55.485L47.3344 46.2578H41.9681V65.3024C43.6388 65.1647 44.7525 64.614 44.9044 62.6866V52.6824H50.3719V62.5489C50.4731 65.1647 49.9163 67.2298 46.4231 69.7079C44.6006 71.0387 44.0438 72.0483 44.0944 73.425C41.715 73.425 39.3356 73.425 36.9056 73.425C36.9056 72.0483 36.3488 71.0387 34.5769 69.7079C31.0838 67.2298 30.5269 65.1647 30.6281 62.5489V52.6824H36.0956V62.6866C36.2475 64.614 37.3106 65.1647 39.0319 65.3024V46.2578H33.615L25.4644 52.6824H27.7425V60.851C24.705 60.851 23.1863 61.4934 23.1356 63.1914C23.2369 64.9352 24.0975 65.5777 25.8188 65.6695C27.8438 65.7154 29.5144 66.2661 29.5144 67.7804V70.3962H9.26437V68.0558C9.21375 66.8626 8.60625 66.6332 6.93563 66.6332V59.7955C8.7075 59.8414 9.26438 59.3366 9.21375 58.327V54.1509H7.695C6.2775 54.105 5.01188 53.5085 4.30313 52.4989C3.18938 51.1222 3.18938 49.4242 4.05 46.6708L7.0875 37.768C7.695 35.244 7.0875 33.3625 5.0625 32.2152C6.48 35.0145 5.72063 37.3091 3.49313 39.1906V30.0584C6.02438 30.5632 7.39125 31.8481 8.505 33.7296C9.16313 35.0145 9.1125 36.6207 8.505 38.5481L5.72063 46.9461C5.11313 48.69 4.96125 50.342 5.4675 51.3516C6.12563 52.7283 7.79625 52.6365 9.21375 52.6365L14.1244 48.4146L10.0238 34.831C9.41625 32.6282 9.1125 30.5632 9.66938 28.8652C10.3781 27.0755 11.8969 26.2035 13.6181 25.7905V24.5974H21.0094L26.0213 26.433V29.9207H23.9963C22.8825 29.9666 22.9838 31.2515 23.9963 31.2515H25.9706V34.5098H25.2619L29.2106 36.7584L35.235 31.6645V29.8748L38.88 29.9207V29.4159C37.1588 28.8193 35.9438 27.3049 35.9438 25.5152C35.9438 23.2207 38.0194 21.3391 40.5 21.3391ZM40.5 22.8535C42.12 22.8535 43.4363 24.0467 43.4363 25.5152C43.4363 26.9837 42.12 28.1768 40.5 28.1768C38.88 28.1768 37.5638 26.9837 37.5638 25.5152C37.5638 24.0467 38.88 22.8535 40.5 22.8535ZM42.2213 40.7509V42.4488H45.0563L58.9275 34.4639H62.2181C63.7369 34.4639 64.8 34.0508 64.8 33.0412V31.894H63.2306V32.4906C63.18 32.72 62.9269 32.9036 62.6231 32.9495H56.5988V32.4906H57.4594C58.32 32.4906 59.2313 31.5269 59.2313 30.5632C59.1806 29.2323 58.0163 28.5899 56.6494 28.6816V27.3967L60.345 26.02H65.7619C65.8125 27.1214 65.3063 27.9015 63.585 27.9933V29.2323C65.3569 29.2782 66.7238 28.8652 67.23 27.259C68.5969 27.5803 69.4575 28.2686 69.7613 29.37C70.1156 31.1597 69.7613 33.2248 69.1538 35.4735L64.9013 48.8276L70.2169 53.3708V58.8777C70.2675 59.979 70.875 60.8051 72.3938 61.0804V65.0729C71.0269 65.4859 70.2169 66.2202 70.2169 67.5051V68.79H62.3194V67.9181C62.37 67.4133 62.6231 67.2757 63.1294 67.2298C65.5088 67.138 67.7869 66.2661 67.7869 63.375C67.7363 60.7592 66.1162 59.566 63.1294 59.3825V56.3996L47.9925 44.7434C42.9806 44.7434 37.9688 44.7434 32.9569 44.7434L17.8706 56.3996V59.3825C14.8837 59.566 13.2638 60.8051 13.2131 63.375C13.2131 66.2661 15.4913 67.138 17.8706 67.2298C18.3769 67.2757 18.63 67.4133 18.6806 67.9181V68.79H10.7831V67.5051C10.7831 66.2661 9.97313 65.4859 8.60625 65.0729V61.0804C10.125 60.8051 10.7831 59.979 10.7831 58.8777V53.4167L16.0988 48.8735L11.8463 35.5193C11.1881 33.2707 10.8844 31.1597 11.2388 29.4159C11.4919 28.3604 12.4031 27.6262 13.77 27.3049C14.2763 28.9111 15.6431 29.2782 17.415 29.2782V28.0392C15.6938 27.9474 15.1875 27.2131 15.2381 26.0659H20.655L24.3506 27.4426V28.7275C22.9837 28.6816 21.7688 29.2782 21.7688 30.609C21.7688 31.5728 22.7306 32.5365 23.5406 32.5365H24.4013V32.9954H18.3769C18.0731 32.9954 17.82 32.8118 17.7694 32.5365V31.9399H16.2V33.0871C16.2 34.0967 17.2631 34.5098 18.7819 34.5098H22.0725L35.9438 42.4947H38.7788V40.7968C39.9431 40.7509 41.0569 40.7509 42.2213 40.7509ZM42.525 66.725C44.6513 66.6791 46.5244 64.8435 46.5244 62.8702V54.2886H48.7519V62.9619C48.6506 64.7058 48.195 66.1743 47.1319 67.0462C44.0944 69.4784 42.8288 70.7175 42.7781 71.9106H41.9681V68.6524H39.0319V71.9106H38.2219C38.2219 70.7175 36.9056 69.4325 33.8681 67.0462C32.805 66.1743 32.3494 64.7058 32.2481 62.9619V54.2886H34.4756V62.8702C34.4756 64.8435 36.3488 66.6791 38.475 66.725C39.8419 66.725 41.1581 66.725 42.525 66.725ZM26.1225 30.0125H29.9194L28.4513 31.2974H26.0719V30.0125H26.1225ZM27.7425 68.8818H20.3513V67.7346C20.3006 66.4496 19.3894 65.8072 17.6681 65.7154C16.1494 65.6695 14.985 65.1647 14.8331 63.4208C14.8331 61.8606 16.1494 60.8969 18.0731 60.851H19.4906V57.0879L23.49 54.105H26.1225V59.3366C23.1356 59.566 21.4144 60.851 21.4144 63.5585C21.5662 65.7613 23.1863 67.0462 25.4138 67.138L26.7806 67.1839C27.4894 67.2298 27.8438 67.5051 27.7425 68.8818ZM38.88 36.2077V39.2365H37.0575V41.3016L33.8681 39.42L37.4625 36.1618H38.88V36.2077ZM15.795 42.4488H18.2756C17.82 40.292 16.9594 38.5022 15.795 38.0892V42.4488ZM18.7819 42.4488H21.2625C20.8069 40.292 19.9463 38.5022 18.7819 38.0892V42.4488ZM21.8194 42.4488H24.3C23.8444 40.292 22.9837 38.5022 21.8194 38.0892V42.4488ZM24.8063 42.4488H27.2869C26.8313 40.292 25.9706 38.5022 24.8063 38.0892V42.4488ZM54.8775 30.0125H51.0806L52.5488 31.2974H54.9281V30.0125H54.8775ZM53.2575 68.8818H60.6488V67.7346C60.6994 66.4496 61.6106 65.8072 63.3319 65.7154C64.8506 65.6695 66.015 65.1647 66.1669 63.4208C66.1669 61.8606 64.8506 60.8969 62.9269 60.851H61.5094V57.0879L57.51 54.105H54.8775V59.3366C57.8644 59.566 59.5856 60.851 59.5856 63.5585C59.4338 65.7613 57.8138 67.0462 55.5863 67.138L54.2194 67.1839C53.5106 67.2298 53.1562 67.5051 53.2575 68.8818ZM42.12 36.2077V39.2365H43.9425V41.3016L47.1319 39.42L43.5375 36.1618H42.12V36.2077ZM65.205 42.4488H62.7244C63.18 40.292 64.0406 38.5022 65.205 38.0892V42.4488ZM62.2181 42.4488H59.7375C60.1931 40.292 61.0538 38.5022 62.2181 38.0892V42.4488ZM59.1806 42.4488H56.7C57.1556 40.292 58.0163 38.5022 59.1806 38.0892V42.4488ZM56.1938 42.4488H53.7131C54.1688 40.292 55.0294 38.5022 56.1938 38.0892V42.4488Z" fill="white"/>
</svg>